<svg xmlns="http://www.w3.org/2000/svg" xmlns:xlink="http://www.w3.org/1999/xlink" width="1150" zoomAndPan="magnify" viewBox="0 0 862.5 225" height="300" preserveAspectRatio="xMidYMid meet" version="1.0"><defs><g/><clipPath id="f4fc790ba7"><path d="M 22.488281 15.746094 L 264.597656 15.746094 L 264.597656 209.132812 L 22.488281 209.132812 Z M 22.488281 15.746094 " clip-rule="nonzero"/></clipPath></defs><g fill="#070606" fill-opacity="1"><g transform="translate(330.053074, 148.104364)"><g><path d="M 7.125 0.601562 C 11.039062 0.601562 13.046875 -1.105469 14.851562 -6.925781 L 17.261719 -14.148438 L 45.558594 -14.148438 L 48.070312 -6.722656 C 49.574219 -1.90625 51.28125 0.601562 55.796875 0.601562 C 59.910156 0.601562 62.621094 -1.707031 62.621094 -5.320312 C 62.621094 -8.328125 61.515625 -11.441406 60.511719 -14.148438 L 42.046875 -63.722656 C 39.839844 -69.644531 36.628906 -72.855469 31.511719 -72.855469 C 26.191406 -72.855469 23.082031 -69.644531 20.875 -63.722656 L 2.609375 -14.851562 C 1.40625 -11.640625 0.199219 -8.230469 0.199219 -5.320312 C 0.199219 -1.707031 2.910156 0.601562 7.125 0.601562 Z M 21.574219 -27.496094 L 31.609375 -56.5 L 31.8125 -56.5 L 41.246094 -27.496094 Z M 21.574219 -27.496094 "/></g></g></g><g fill="#070606" fill-opacity="1"><g transform="translate(409.830628, 148.104364)"><g><path d="M 11.640625 0.601562 C 16.054688 0.601562 18.867188 -2.207031 18.867188 -6.925781 L 18.867188 -29.203125 L 19.066406 -29.203125 L 40.742188 -2.910156 C 43.152344 0.199219 44.957031 0.601562 47.566406 0.601562 C 51.980469 0.601562 54.890625 -2.710938 54.890625 -6.019531 C 54.890625 -8.53125 53.585938 -10.4375 51.882812 -12.242188 L 35.625 -29.703125 L 37.429688 -29.804688 C 48.671875 -31.710938 54.089844 -40.542969 54.089844 -49.875 C 54.089844 -62.71875 44.65625 -71.449219 30.707031 -71.449219 L 11.640625 -71.449219 C 7.527344 -71.449219 4.414062 -68.441406 4.414062 -64.425781 L 4.414062 -6.925781 C 4.414062 -2.207031 7.324219 0.601562 11.640625 0.601562 Z M 18.867188 -40.140625 L 18.867188 -58.105469 L 30.304688 -58.105469 C 35.523438 -58.105469 39.640625 -54.792969 39.640625 -49.070312 C 39.640625 -43.550781 35.824219 -40.140625 30.304688 -40.140625 Z M 18.867188 -40.140625 "/></g></g></g><g fill="#070606" fill-opacity="1"><g transform="translate(483.286262, 148.104364)"><g><path d="M 22.878906 0.601562 C 27.195312 0.601562 30.105469 -2.207031 30.105469 -6.925781 L 30.105469 -58.105469 L 40.441406 -58.105469 C 44.757812 -58.105469 47.667969 -60.613281 47.667969 -64.726562 C 47.667969 -68.941406 44.757812 -71.449219 40.441406 -71.449219 L 5.320312 -71.449219 C 1.003906 -71.449219 -1.90625 -68.941406 -1.90625 -64.726562 C -1.90625 -60.613281 1.003906 -58.105469 5.320312 -58.105469 L 15.65625 -58.105469 L 15.65625 -6.925781 C 15.65625 -2.207031 18.566406 0.601562 22.878906 0.601562 Z M 22.878906 0.601562 "/></g></g></g><g fill="#070606" fill-opacity="1"><g transform="translate(546.004665, 148.104364)"><g><path d="M 11.640625 0.601562 C 16.054688 0.601562 18.867188 -2.207031 18.867188 -6.925781 L 18.867188 -64.527344 C 18.867188 -69.242188 16.054688 -72.050781 11.640625 -72.050781 C 7.324219 -72.050781 4.414062 -69.242188 4.414062 -64.527344 L 4.414062 -6.925781 C 4.414062 -2.207031 7.324219 0.601562 11.640625 0.601562 Z M 11.640625 0.601562 "/></g></g></g><g fill="#070606" fill-opacity="1"><g transform="translate(586.345459, 148.104364)"><g><path d="M 37.230469 1.40625 C 55.996094 1.40625 68.640625 -12.34375 68.640625 -32.816406 C 68.640625 -39.136719 65.628906 -41.945312 60.8125 -41.945312 L 43.453125 -41.945312 C 39.339844 -41.945312 36.527344 -39.4375 36.527344 -35.222656 C 36.527344 -31.109375 39.339844 -28.601562 43.550781 -28.601562 L 53.789062 -28.601562 C 53.085938 -18.164062 46.5625 -11.941406 37.332031 -11.941406 C 25.289062 -11.941406 18.0625 -21.777344 18.0625 -35.726562 C 18.0625 -49.273438 25.890625 -59.507812 37.429688 -59.507812 C 43.753906 -59.507812 47.765625 -57 51.78125 -54.089844 C 53.789062 -52.785156 55.394531 -51.882812 57.402344 -51.882812 C 61.316406 -51.882812 63.824219 -54.390625 63.824219 -58.105469 C 63.824219 -60.8125 62.417969 -63.320312 60.011719 -65.53125 C 55.195312 -69.84375 46.261719 -72.855469 36.828125 -72.855469 C 16.757812 -72.855469 2.507812 -57.101562 2.507812 -35.324219 C 2.507812 -15.957031 14.148438 1.40625 37.230469 1.40625 Z M 37.230469 1.40625 "/></g></g></g><g fill="#070606" fill-opacity="1"><g transform="translate(674.652585, 148.104364)"><g><path d="M 11.640625 0 L 37.429688 0 C 41.445312 0 44.457031 -2.710938 44.457031 -6.722656 C 44.457031 -10.9375 41.546875 -13.347656 37.332031 -13.347656 L 18.867188 -13.347656 L 18.867188 -29.203125 L 35.425781 -29.203125 C 39.640625 -29.203125 42.449219 -31.710938 42.449219 -35.824219 C 42.449219 -40.039062 39.4375 -42.550781 35.425781 -42.550781 L 18.964844 -42.550781 L 18.964844 -58.105469 L 36.730469 -58.105469 C 40.742188 -58.105469 43.753906 -60.511719 43.753906 -64.726562 C 43.753906 -68.742188 40.742188 -71.449219 36.730469 -71.449219 L 11.640625 -71.449219 C 7.625 -71.449219 4.414062 -68.441406 4.414062 -64.425781 L 4.414062 -7.125 C 4.414062 -3.011719 7.625 0 11.640625 0 Z M 11.640625 0 "/></g></g></g><g fill="#070606" fill-opacity="1"><g transform="translate(737.672011, 148.104364)"><g><path d="M 11.640625 0.601562 C 16.054688 0.601562 18.867188 -2.207031 18.867188 -6.925781 L 18.867188 -45.359375 L 19.066406 -45.359375 L 50.476562 -4.414062 C 53.1875 -1.003906 54.992188 0.601562 58.203125 0.601562 C 62.621094 0.601562 65.429688 -2.207031 65.429688 -6.925781 L 65.429688 -64.527344 C 65.429688 -69.242188 62.519531 -72.050781 58.203125 -72.050781 C 53.890625 -72.050781 50.980469 -69.242188 50.980469 -64.527344 L 50.980469 -26.292969 L 50.777344 -26.292969 L 18.964844 -67.738281 C 16.660156 -70.546875 15.054688 -72.050781 11.640625 -72.050781 C 7.324219 -72.050781 4.414062 -69.140625 4.414062 -64.625 L 4.414062 -6.925781 C 4.414062 -2.207031 7.324219 0.601562 11.640625 0.601562 Z M 11.640625 0.601562 "/></g></g></g><path fill="#007979" d="M 82.957031 100.40625 C 96.292969 100.40625 107.144531 89.554688 107.144531 76.21875 C 107.144531 62.878906 96.292969 52.03125 82.957031 52.03125 C 69.617188 52.03125 58.769531 62.878906 58.769531 76.21875 C 58.769531 89.554688 69.617188 100.40625 82.957031 100.40625 " fill-opacity="1" fill-rule="nonzero"/><g clip-path="url(#f4fc790ba7)"><path fill="#003366" d="M 240.175781 131.839844 L 201.96875 87.261719 C 197.917969 82.507812 192.054688 79.96875 185.753906 79.820312 C 179.488281 79.859375 173.609375 82.644531 169.597656 87.449219 L 124.679688 141.367188 L 124.652344 141.339844 L 91.402344 184.433594 C 90.441406 185.679688 88.65625 185.90625 87.414062 184.945312 C 86.167969 183.988281 85.933594 182.199219 86.894531 180.953125 L 120.585938 137.285156 L 110.042969 126.773438 C 101.773438 118.496094 88.3125 118.496094 80.054688 126.773438 L 46.675781 160.136719 L 46.675781 45.984375 C 46.675781 42.644531 49.382812 39.9375 52.722656 39.9375 L 234.128906 39.9375 C 237.46875 39.9375 240.175781 42.644531 240.175781 45.984375 Z M 234.128906 15.75 L 52.722656 15.75 C 36.054688 15.75 22.488281 29.316406 22.488281 45.984375 L 22.488281 179.015625 C 22.488281 195.683594 36.054688 209.25 52.722656 209.25 L 234.128906 209.25 C 250.796875 209.25 264.363281 195.683594 264.363281 179.015625 L 264.363281 45.984375 C 264.363281 29.316406 250.796875 15.75 234.128906 15.75 " fill-opacity="1" fill-rule="nonzero"/></g></svg>